<svg width="887" height="226" viewBox="0 0 887 226" fill="none" xmlns="http://www.w3.org/2000/svg">
<path d="M269.236 32.8521L259.482 42.6071L265.334 48.4601L275.089 38.7051L269.236 32.8521Z" fill="#F15C00" stroke="#F15C00" stroke-width="3.90198"/>
<path d="M58.5297 15.2932C86.6239 23.0972 109.255 41.9568 117.059 50.411C99.8906 37.9247 78.6899 30.0647 70.2356 27.6955V140.157C90.5259 154.204 108.605 174.624 115.108 183.078C97.9396 170.592 70.2356 155.764 58.5297 149.911V15.2932Z" fill="#F15C00"/>
<path d="M50.7257 38.7051H37.0688V173.323H39.0198C74.918 173.323 104.703 185.029 115.108 190.882C91.6965 173.714 62.4316 165.055 50.7257 162.873V38.7051Z" fill="#F15C00"/>
<path d="M31.2158 73.8229V58.215H7.80395C0 58.215 0 66.0189 0 69.9209V185.029C0 194.784 5.85297 196.735 11.7059 196.735H107.304C94.818 185.81 40.9708 181.778 15.6079 181.127V73.8229H31.2158Z" fill="#F15C00"/>
<path d="M191.197 15.2932C163.103 23.0972 140.471 41.9568 132.667 50.411C149.836 37.9247 171.037 30.0647 179.491 27.6955V140.157C159.201 154.204 141.122 174.624 134.618 183.078C151.787 170.592 179.491 155.764 191.197 149.911V15.2932Z" fill="#F15C00"/>
<path d="M199.001 38.7051H212.658V173.323H210.707C174.809 173.323 145.024 185.029 134.618 190.882C158.03 173.714 187.295 165.055 199.001 162.873V38.7051Z" fill="#F15C00"/>
<path d="M234.119 181.127V85.5288H249.727V185.029C249.727 194.784 243.874 196.735 238.021 196.735H142.422C154.909 185.81 208.756 181.778 234.119 181.127Z" fill="#F15C00"/>
<path d="M164.358 218.196C164.358 221.71 161.65 224.439 158.454 224.439C155.258 224.439 152.55 221.71 152.55 218.196C152.55 214.682 155.258 211.953 158.454 211.953C161.65 211.953 164.358 214.682 164.358 218.196Z" fill="#F15C00" stroke="#F15C00" stroke-width="3.12158"/>
<path d="M97.1763 218.196C97.1763 221.71 94.4683 224.439 91.2724 224.439C88.0764 224.439 85.3685 221.71 85.3685 218.196C85.3685 214.682 88.0764 211.953 91.2724 211.953C94.4683 211.953 97.1763 214.682 97.1763 218.196Z" fill="#F15C00" stroke="#F15C00" stroke-width="3.12158"/>
<path d="M118.484 206.49C118.484 208.247 117.13 209.612 115.532 209.612C113.934 209.612 112.58 208.247 112.58 206.49C112.58 204.733 113.934 203.368 115.532 203.368C117.13 203.368 118.484 204.733 118.484 206.49Z" fill="#F15C00" stroke="#F15C00" stroke-width="1.56079"/>
<path d="M137.146 206.49C137.146 208.247 135.792 209.612 134.194 209.612C132.596 209.612 131.242 208.247 131.242 206.49C131.242 204.733 132.596 203.368 134.194 203.368C135.792 203.368 137.146 204.733 137.146 206.49Z" fill="#F15C00" stroke="#F15C00" stroke-width="1.56079"/>
<path d="M109.056 210.392H91.2723V226H158.454V210.392H109.056Z" fill="#F15C00"/>
<path d="M111.8 214.294V206.49H115.532V202.588H134.194V206.49H137.926V214.294H111.8Z" fill="#F15C00"/>
<rect x="236.07" y="40.6561" width="31.2158" height="31.2158" rx="1.95099" fill="#F15C00" stroke="#F15C00" stroke-width="3.90198"/>
<mask id="path-11-inside-1_1_29" fill="white">
<rect x="265.334" y="19.1952" width="23.4119" height="23.4119" rx="1.95099"/>
</mask>
<rect x="265.334" y="19.1952" width="23.4119" height="23.4119" rx="1.95099" fill="#F15C00" stroke="#F15C00" stroke-width="7.80395" mask="url(#path-11-inside-1_1_29)"/>
<mask id="path-12-inside-2_1_29" fill="white">
<rect x="246.139" width="15.6079" height="15.6079" rx="1.95099"/>
</mask>
<rect x="246.139" width="15.6079" height="15.6079" rx="1.95099" fill="#F15C00" stroke="#F15C00" stroke-width="7.80395" mask="url(#path-12-inside-2_1_29)"/>
<path d="M329.314 146.366C328.812 146.868 327.27 147.119 324.687 147.119C322.893 147.478 320.777 147.191 318.337 146.258L316.077 145.505L312.741 143.891C312.454 143.891 312.275 143.891 312.203 143.891C312.131 143.963 311.952 143.891 311.665 143.676C311.234 143.317 310.732 143.03 310.158 142.815C308.723 141.81 307.719 140.913 307.145 140.124C304.849 136.465 303.701 133.416 303.701 130.977C303.701 130.69 304.06 130.151 304.777 129.362C306.212 127.64 308.006 126.779 310.158 126.779C311.019 126.851 311.701 127.138 312.203 127.64L315.754 132.268C316.328 132.842 316.974 133.416 317.691 133.99L319.09 135.497L321.243 137.326C321.53 137.47 321.817 137.541 322.104 137.541C322.391 137.685 323.18 137.864 324.471 138.079C325.906 137.721 327.126 137.326 328.13 136.896C328.776 136.25 329.35 135.748 329.852 135.389L331.359 133.667C331.503 133.523 331.754 132.95 332.112 131.945C332.112 131.012 332.112 130.403 332.112 130.116C332.184 129.757 332.077 128.86 331.79 127.425C331.718 127.21 331.216 126.636 330.283 125.703C329.852 124.842 329.243 123.91 328.453 122.905C328.023 122.475 325.942 121.327 322.211 119.461L320.167 118.277L318.23 116.556C317.297 116.269 315.97 115.3 314.248 113.65C313.53 113.148 312.992 112.753 312.633 112.466C312.203 112.323 311.019 111.103 309.082 108.807C309.082 108.663 308.472 107.3 307.252 104.717L306.284 100.52L306.714 97.7222C306.284 95.8568 306.14 94.4578 306.284 93.5251C306.571 93.0946 306.93 92.2336 307.36 90.9422C307.145 89.866 308.113 87.7495 310.266 84.5927C310.266 84.1622 311.844 82.4403 315.001 79.427L318.66 77.4898L320.382 76.7365C321.028 76.6648 321.889 76.5571 322.965 76.4136C324.113 76.2702 325.799 76.2702 328.023 76.4136C330.247 76.5571 331.646 76.8441 332.22 77.2746C332.722 77.4898 334.157 78.4584 336.525 80.1803C339.682 82.9784 341.404 85.4895 341.69 87.7136C342.91 91.3727 342.982 95.2829 341.906 99.4441C341.906 99.7311 340.901 100.305 338.892 101.166L336.202 101.058C333.906 100.771 331.718 99.5876 329.637 97.507C329.063 97.1482 328.633 96.1438 328.346 94.4936C328.274 92.7717 327.915 91.7314 327.27 91.3727C327.198 91.3009 326.911 90.6552 326.409 89.4355C325.189 87.8571 324.364 87.0679 323.933 87.0679C323.575 87.0679 323.144 87.1755 322.642 87.3908C320.059 89.4714 318.696 91.8032 318.552 94.386C318.05 96.4667 318.696 99.0136 320.49 102.027C321.279 103.175 321.781 103.749 321.996 103.749C322.427 104.466 323.252 105.363 324.471 106.439L325.978 108.054L330.498 111.39L332.328 113.219L334.372 114.511C335.52 115.013 336.632 115.695 337.709 116.556C339.144 117.632 340.901 119.641 342.982 122.582C343.412 123.228 343.986 125.165 344.704 128.394V132.591L344.166 135.066C343.807 135.425 343.412 136.142 342.982 137.218C342.982 137.29 342.587 138.259 341.798 140.124C341.583 140.483 340.722 141.236 339.215 142.384C337.063 144.106 334.659 145.397 332.005 146.258C331.431 146.402 330.534 146.438 329.314 146.366ZM367.48 107.3C367.552 105.578 367.552 104.538 367.48 104.179C367.48 103.821 367.48 103.57 367.48 103.426L367.803 100.52C367.803 99.4441 367.731 98.619 367.588 98.0451C367.66 97.7581 367.696 97.1841 367.696 96.3232C367.839 96.0362 367.911 95.6416 367.911 95.1394C367.911 94.5654 368.09 92.4848 368.449 88.8975C366.871 89.2562 365.83 89.5073 365.328 89.6508L361.023 89.866C359.086 90.44 357.687 90.727 356.826 90.727C354.817 91.3009 353.633 91.5521 353.275 91.4803C351.481 91.6238 350.297 91.4803 349.723 91.0498C348.934 90.1171 348.539 88.7898 348.539 87.0679C348.252 85.5613 348.217 84.5568 348.432 84.0546C349.221 82.9784 349.723 82.3686 349.938 82.2251C350.225 82.0098 350.871 81.7946 351.876 81.5794C352.88 81.3641 353.849 80.8619 354.781 80.0727L360.593 77.7051C360.593 77.7051 361.418 77.5616 363.068 77.2746C364.79 76.9159 366.081 76.5213 366.942 76.0908C367.301 76.0908 368.09 75.9832 369.31 75.7679C370.53 75.5527 371.283 75.4809 371.57 75.5527C371.857 75.5527 372.359 75.3375 373.077 74.907L379.964 74.2613C380.036 74.333 380.431 74.4048 381.148 74.4765C382.224 74.62 383.551 74.4406 385.13 73.9384C386.278 74.0819 387.246 74.1178 388.036 74.046C388.394 74.1895 389.471 73.9743 391.264 73.4003C391.695 73.4003 392.089 73.3644 392.448 73.2927C392.807 73.1492 393.632 72.934 394.923 72.647C395.712 72.647 396.358 72.8263 396.86 73.1851C397.219 73.1133 397.614 73.3286 398.044 73.8308C398.546 74.333 399.049 75.0146 399.551 75.8756C400.699 77.5975 401.38 78.6019 401.596 78.8889C402.528 80.3955 403.138 81.9381 403.425 83.5165C403.712 84.0905 403.784 84.4851 403.64 84.7003C403.497 84.9156 402.995 85.0949 402.134 85.2384C401.775 84.9514 401.345 84.8438 400.842 84.9156C400.34 84.9156 398.798 85.0949 396.215 85.4536L394.385 85.346C392.663 85.7765 390.475 85.9917 387.82 85.9917L381.148 86.207L380.502 86.5298C380.072 91.839 379.928 95.2829 380.072 96.8613C380.431 99.5876 380.538 101.023 380.395 101.166V103.318C381.112 116.233 381.507 122.941 381.578 123.443C381.722 123.945 381.794 124.95 381.794 126.457L382.547 135.174C382.978 135.676 383.229 136.501 383.3 137.649C383.372 139.156 382.978 140.052 382.117 140.339C380.61 140.842 379.39 141.308 378.458 141.738C377.525 142.097 376.054 142.133 374.045 141.846C374.045 141.631 373.22 141.272 371.57 140.77C371.57 140.698 371.104 140.16 370.171 139.156C369.884 138.797 369.74 138.295 369.74 137.649C369.31 135.927 369.095 133.631 369.095 130.761C368.664 128.752 368.592 127.246 368.879 126.241C368.808 126.17 368.557 124.95 368.126 122.582V118.6C368.126 118.026 367.947 117.452 367.588 116.878L367.48 113.542V107.3ZM406.069 134.313C405.782 134.026 405.495 133.344 405.208 132.268C404.992 131.192 404.885 130.187 404.885 129.255C404.956 128.322 404.885 127.102 404.669 125.596C404.741 125.309 404.777 124.519 404.777 123.228C404.777 121.865 404.705 120.537 404.562 119.246C404.418 117.883 404.347 116.807 404.347 116.017C404.418 115.157 404.418 114.224 404.347 113.219C404.418 112.717 404.562 111.856 404.777 110.637C404.705 110.565 404.669 109.668 404.669 107.946C404.669 106.152 404.813 104.717 405.1 103.641C405.1 101.632 405.279 99.4441 405.638 97.0765V95.247C406.14 92.1619 406.463 89.9736 406.607 88.6822C406.678 87.1038 406.894 85.8124 407.252 84.8079C406.965 83.8752 407.288 81.8663 408.221 78.7813C408.508 78.0638 409.476 77.3822 411.127 76.7365L411.019 76.8441C411.449 76.5571 412.346 76.4495 413.709 76.5213C415.073 76.593 415.969 76.7365 416.4 76.9517C416.902 77.167 417.763 77.454 418.983 77.8127C420.633 78.2432 421.063 82.2251 420.274 89.7584C420.274 90.4759 420.059 92.2695 419.629 95.1394C419.629 96.5743 419.521 98.0451 419.306 99.5517V101.597L419.09 104.287C419.09 104.933 419.055 105.543 418.983 106.117C418.983 106.69 418.947 107.587 418.875 108.807C418.875 109.955 418.768 110.852 418.552 111.497C418.409 112.143 418.337 112.574 418.337 112.789C418.122 113.004 417.978 113.614 417.907 114.618C417.835 115.838 417.62 117.309 417.261 119.031C416.902 119.677 417.046 123.443 417.691 130.331C417.835 132.483 418.337 133.918 419.198 134.636C420.059 135.281 421.243 135.066 422.749 133.99C423.18 133.559 423.431 133.272 423.503 133.129L423.933 131.515C424.22 131.515 424.615 130.797 425.117 129.362L426.301 127.21L426.624 125.918C426.624 125.344 426.911 124.555 427.485 123.551C428.13 122.475 428.525 121.757 428.669 121.398L430.283 116.017L430.929 113.327C430.929 112.897 431.216 112.107 431.789 110.959C431.789 110.601 431.969 109.668 432.328 108.161C432.328 106.798 432.292 105.83 432.22 105.256C432.292 105.256 432.328 105.04 432.328 104.61C432.399 104.179 432.579 103.498 432.866 102.565C433.224 101.561 433.404 100.341 433.404 98.906C433.404 98.6908 433.727 97.9733 434.372 96.7536C434.372 94.8883 435.054 92.413 436.417 89.3279C436.345 89.3997 436.345 89.3279 436.417 89.1127C436.489 88.8257 436.525 88.6105 436.525 88.467C436.596 88.2517 436.668 88.0365 436.74 87.8213C436.812 87.606 436.848 87.3908 436.848 87.1756C436.632 86.7451 436.668 86.207 436.955 85.5613C437.242 84.9155 437.493 84.234 437.709 83.5165C437.924 82.799 438.175 82.0816 438.462 81.3641L441.045 79.6422C441.403 79.6422 441.87 79.6063 442.444 79.5346C443.089 79.3911 444.524 79.3911 446.749 79.5346C447.609 79.8216 448.291 80.6108 448.793 81.9022C449.583 83.1219 449.69 84.9156 449.116 87.2832C449.116 87.7854 448.829 89.5432 448.255 92.5565C448.255 93.0587 448.04 94.2425 447.609 96.1079C447.179 97.9733 446.856 99.6594 446.641 101.166C446.497 102.601 446.318 103.57 446.103 104.072C445.959 105.076 445.923 105.901 445.995 106.547L445.349 111.175C445.349 112.323 445.242 114.044 445.027 116.34C444.811 118.636 444.56 120.43 444.273 121.721C444.058 122.941 444.417 125.416 445.349 129.147L446.641 136.142C446.641 137.218 446.82 138.151 447.179 138.94C447.538 139.658 447.717 140.017 447.717 140.017V140.555C449.726 144.501 449.044 146.797 445.672 147.442C444.022 147.873 443.018 148.16 442.659 148.303C442.3 148.518 441.511 148.447 440.291 148.088C439.143 147.801 438.067 147.155 437.063 146.151C436.776 145.72 436.381 144.429 435.879 142.277C435.664 141.846 435.413 140.59 435.126 138.51C434.91 138.295 434.659 137.47 434.372 136.035C434.516 135.748 434.372 135.281 433.942 134.636C433.44 135.64 433.081 136.286 432.866 136.573C432.363 137.362 432.041 137.936 431.897 138.295C431.825 138.582 431.574 139.299 431.144 140.447L429.207 143.891C427.7 146.689 425.835 147.944 423.61 147.657C423.539 147.586 422.821 147.514 421.458 147.442C421.171 147.155 420.167 146.904 418.445 146.689C418.158 146.617 417.799 146.545 417.369 146.474C416.938 146.474 416.364 146.438 415.647 146.366C415.503 146.151 414.965 145.756 414.032 145.182C411.88 144.393 410.409 143.317 409.62 141.954C408.974 141.81 408.508 141.308 408.221 140.447C408.077 140.017 407.611 139.012 406.822 137.434L406.069 134.313ZM479.875 99.9822C479.875 100.771 479.696 103.283 479.337 107.516V109.883C478.476 120.717 478.153 130.187 478.368 138.295C479.66 137.936 480.772 137.254 481.705 136.25C482.781 135.317 484.108 134.205 485.686 132.914L487.193 131.299C487.552 131.228 488.485 130.367 489.991 128.717V128.609C490.135 128.178 490.745 127.282 491.821 125.918L493.005 123.443L493.758 121.291C494.332 120.502 495.013 118.6 495.803 115.587L496.448 111.175V108.269C496.448 107.695 496.52 106.977 496.664 106.117C496.664 104.753 496.556 103.713 496.341 102.996C495.839 96.3949 493.435 92.0184 489.13 89.866C487.408 88.8616 485.615 88.6463 483.749 89.2203C482.96 89.2203 481.74 89.7225 480.09 90.727C480.162 91.7314 480.198 93.4175 480.198 95.7851L479.875 99.9822ZM465.562 137.757L464.916 130.438L465.346 124.735C465.346 123.443 465.49 121.829 465.777 119.892C465.562 119.605 465.526 117.99 465.669 115.049C465.956 114.547 466.1 114.009 466.1 113.435C465.813 108.197 465.741 105.327 465.885 104.825C466.1 104.251 466.1 103.318 465.885 102.027C466.028 101.883 466.207 101.13 466.423 99.767C466.71 98.4038 466.817 97.4711 466.745 96.9689C464.306 97.1124 462.477 96.5025 461.257 95.1394C460.037 93.7762 458.961 91.8032 458.028 89.2203C458.244 87.4984 458.566 86.3505 458.997 85.7765C459.499 85.1308 459.822 84.7362 459.965 84.5927C460.109 84.3775 460.432 84.0546 460.934 83.6241C461.508 83.1936 461.867 82.9425 462.01 82.8708C462.225 82.7273 462.728 82.4044 463.517 81.9022C464.306 81.3282 464.808 80.9695 465.024 80.826C465.239 80.4673 465.813 80.1803 466.745 79.9651C467.678 79.6781 469.005 79.14 470.727 78.3508C471.014 78.0638 472.234 77.5975 474.386 76.9517C478.619 76.0908 482.099 76.1984 484.825 77.2746C486.332 77.0594 487.516 77.1311 488.377 77.4898C489.023 78.0638 490.063 78.5302 491.498 78.8889L496.986 81.5794C498.134 82.7273 499.82 84.5209 502.045 86.9603C504.699 91.1933 506.529 95.9286 507.533 101.166C507.748 102.529 507.856 104.933 507.856 108.377C507.641 113.112 506.995 116.986 505.919 119.999C505.775 120.86 505.452 121.757 504.95 122.69C504.807 123.623 504.412 124.735 503.766 126.026C503.766 126.385 503.013 127.82 501.506 130.331C499.856 132.842 498.385 134.958 497.094 136.68C494.942 138.689 493.686 139.909 493.327 140.339C492.969 140.77 492.646 141.129 492.359 141.416L490.422 142.815L481.489 147.765C480.844 148.267 479.839 148.662 478.476 148.949C476.395 149.164 475.104 149.092 474.602 148.734C473.597 148.447 472.521 147.729 471.373 146.581C471.014 146.51 470.405 145.936 469.544 144.859C469.472 144.788 469.185 144.608 468.683 144.321C468.18 144.034 467.822 143.783 467.606 143.568C466.745 142.348 466.064 140.411 465.562 137.757ZM539.623 109.883C539.623 108.879 539.659 108.054 539.731 107.408C540.089 103.892 540.34 101.668 540.484 100.736C540.699 99.8029 540.807 99.2289 540.807 99.0136V94.386C541.022 94.099 541.237 92.3413 541.452 89.1127C541.452 85.6689 541.596 83.1219 541.883 81.4717C541.883 80.3956 542.242 79.3911 542.959 78.4584C543.892 76.88 545.004 75.7679 546.295 75.1222H546.403C547.479 74.8352 548.555 74.8711 549.632 75.2298C550.779 75.5886 551.425 75.8038 551.569 75.8756C551.712 75.8756 551.892 75.9473 552.107 76.0908C552.394 76.1625 552.573 76.2343 552.645 76.306C552.788 76.306 552.932 76.3778 553.075 76.5213C553.291 76.593 553.434 76.7006 553.506 76.8441C553.649 76.9159 553.793 77.0235 553.936 77.167C554.08 77.2387 554.187 77.3463 554.259 77.4898C554.977 78.9248 555.479 83.66 555.766 91.6955C555.981 92.987 556.089 95.0676 556.089 97.9375C556.089 100.736 556.053 102.637 555.981 103.641V104.717C555.838 106.009 555.766 106.977 555.766 107.623V108.377C555.766 109.74 555.658 110.78 555.443 111.497C555.443 113.148 555.264 114.69 554.905 116.125C554.905 116.699 554.725 117.632 554.367 118.923C554.08 120.143 553.936 121.147 553.936 121.937C554.008 122.295 553.685 123.802 552.968 126.457C553.111 126.743 552.86 127.856 552.214 129.793C552.214 130.582 551.963 131.515 551.461 132.591C550.959 133.595 550.528 134.6 550.17 135.604C549.811 136.537 549.596 137.075 549.524 137.218C549.093 139.443 547.945 141.846 546.08 144.429L544.358 146.151C544.502 146.294 544.322 146.617 543.82 147.119C543.39 147.622 541.237 148.913 537.363 150.994C537.291 151.065 536.538 151.281 535.103 151.639C533.74 151.998 532.161 152.177 530.368 152.177C528.574 152.177 526.852 151.89 525.202 151.317C524.198 151.101 523.301 150.743 522.512 150.24C522.153 149.882 521.651 149.523 521.005 149.164C520.646 149.164 519.606 148.518 517.884 147.227C517.597 147.012 516.664 145.684 515.086 143.245C514.584 142.097 514.297 141.487 514.225 141.416C514.225 141.272 514.117 141.021 513.902 140.662C513.758 140.303 513.651 139.478 513.579 138.187C513.436 135.317 514.404 133.882 516.485 133.882C518.637 133.882 520.646 134.958 522.512 137.111C523.085 137.685 523.444 138.079 523.588 138.295C523.731 138.438 524.054 138.761 524.556 139.263C525.13 139.765 525.561 140.088 525.848 140.232C526.206 140.375 526.637 140.555 527.139 140.77C527.713 140.985 528.251 141.093 528.753 141.093C529.256 141.093 529.901 140.949 530.691 140.662C531.552 140.303 532.125 139.873 532.412 139.371C532.412 138.653 532.807 137.721 533.596 136.573C534.457 135.425 534.924 134.779 534.995 134.636C535.211 133.631 535.426 132.914 535.641 132.483C536.072 131.263 536.43 129.649 536.717 127.64C536.861 127.497 536.717 126.6 536.287 124.95C536.287 124.663 535.677 124.34 534.457 123.981C533.309 123.551 532.305 123.3 531.444 123.228C530.009 123.515 528.179 122.797 525.955 121.076C525.023 120.358 524.449 119.82 524.233 119.461C524.018 119.031 523.803 118.744 523.588 118.6C523.444 118.457 523.301 118.206 523.157 117.847C521.651 115.336 520.897 113.722 520.897 113.004L520.467 111.928C520.467 111.21 520.18 110.565 519.606 109.991C519.606 109.847 519.498 108.556 519.283 106.117C518.781 104.251 518.53 102.565 518.53 101.058V99.3365L518.637 97.0765C518.494 96.5025 518.53 95.3546 518.745 93.6327V89.5432L518.852 87.9289V85.6689C518.924 85.5971 518.96 85.2384 518.96 84.5927L519.068 83.5165C519.068 82.799 519.104 82.2251 519.175 81.7946C519.175 78.7813 520.754 77.0235 523.911 76.5213C526.35 76.306 528 76.5571 528.861 77.2746C530.511 78.7095 531.229 81.687 531.013 86.207C531.013 87.4984 530.942 88.5746 530.798 89.4355C531.229 90.7987 531.336 91.9825 531.121 92.987C531.265 93.4892 531.336 93.9914 531.336 94.4936V96.1079C531.336 96.3949 531.444 97.7222 531.659 100.09C531.946 102.457 532.233 104.072 532.52 104.933C532.52 105.865 532.664 106.762 532.951 107.623C532.951 108.197 533.345 109.273 534.134 110.852C534.78 114.08 536 115.587 537.793 115.372C538.511 115.228 539.085 114.009 539.515 111.713C539.731 111.497 539.766 110.888 539.623 109.883Z" fill="#F15C00"/>
<path d="M601.283 106.009C602.861 105.148 603.83 104.717 604.188 104.717C604.619 104.717 605.301 104.538 606.233 104.179C607.166 103.821 607.632 103.605 607.632 103.534C607.632 103.39 607.883 103.139 608.386 102.78C608.888 102.35 609.462 101.883 610.108 101.381C610.825 100.807 611.435 100.341 611.937 99.9822C612.511 99.6235 613.228 98.9778 614.089 98.0451C614.95 97.1124 615.668 96.1797 616.242 95.247C616.888 94.2425 617.354 93.5609 617.641 93.2022C617.928 92.7717 618.107 92.3771 618.179 92.0184C618.251 91.5879 618.322 91.014 618.394 90.2965C618.466 89.579 618.538 89.0051 618.609 88.5746C618.681 88.0724 618.645 87.6778 618.502 87.3908C618.43 87.0321 618.251 86.7451 617.964 86.5298C617.748 86.2428 617.533 86.0276 617.318 85.8841C617.175 85.7406 616.888 85.5971 616.457 85.4536C616.098 85.2384 615.704 84.9873 615.273 84.7003C614.628 84.1981 613.515 83.947 611.937 83.947C610.359 83.8752 609.282 83.9111 608.708 84.0546C608.135 84.1263 607.453 84.4492 606.664 85.0232L605.049 85.7765C604.188 88.0724 603.722 89.9019 603.65 91.2651C603.579 92.5565 603.184 95.5698 602.467 100.305C602.108 101.525 601.713 103.426 601.283 106.009ZM607.202 132.806C607.202 132.663 607.417 132.483 607.848 132.268C608.35 131.981 608.924 131.837 609.569 131.837C610.215 131.766 610.681 131.515 610.968 131.084C611.686 130.725 612.188 130.51 612.475 130.438C612.762 130.367 613.874 129.542 615.811 127.963C615.955 127.748 616.242 127.389 616.672 126.887C617.175 126.313 617.497 125.954 617.641 125.811C618.071 125.237 619.076 124.591 620.654 123.874L621.623 122.044L621.946 120.753C622.017 120.609 622.233 120.25 622.591 119.677C623.022 119.103 623.309 118.6 623.452 118.17C623.668 117.739 623.847 117.237 623.99 116.663C624.277 115.443 623.739 114.618 622.376 114.188C619.578 113.04 617.677 112.61 616.672 112.897C614.52 112.61 612.762 112.574 611.399 112.789C610.036 113.004 608.888 113.004 607.955 112.789C605.516 112.932 604.081 113.076 603.65 113.219C603.292 113.363 602.682 113.757 601.821 114.403C600.96 114.977 600.422 115.336 600.207 115.479C599.561 118.564 599.202 121.65 599.13 124.735C599.13 127.748 599.059 129.721 598.915 130.654L599.453 134.528C599.884 134.671 600.745 134.707 602.036 134.636C603.328 134.492 604.045 134.349 604.188 134.205C604.404 133.99 605.049 133.775 606.126 133.559C606.843 133.703 607.202 133.452 607.202 132.806ZM589.229 110.206C589.373 108.628 589.552 107.444 589.768 106.655C589.983 105.865 590.126 104.969 590.198 103.964C590.27 102.888 590.485 101.991 590.844 101.274C590.844 101.13 590.915 100.592 591.059 99.6594C591.274 98.7267 591.382 98.0092 591.382 97.507C591.454 97.0048 591.454 96.6819 591.382 96.5384C591.382 96.3232 591.346 96.2156 591.274 96.2156C591.202 96.2156 590.7 96.5025 589.768 97.0765C588.835 97.5787 588.225 97.8298 587.938 97.8298C587.651 97.7581 586.969 97.3276 585.893 96.5384C585.391 96.0362 584.996 95.7851 584.709 95.7851C584.135 95.5698 583.848 95.0676 583.848 94.2784C583.92 93.4892 583.884 92.4489 583.741 91.1575C583.741 89.7943 583.813 88.8975 583.956 88.467C584.028 88.3952 584.315 88.18 584.817 87.8213C585.319 87.4625 586.144 86.7092 587.292 85.5613C590.09 83.3371 591.597 81.9381 591.812 81.3641C592.028 81.2206 592.279 81.0054 592.566 80.7184C592.924 80.3597 593.247 80.1086 593.534 79.9651C594.18 79.6781 594.539 79.3911 594.61 79.1041C594.754 79.1041 595.113 78.7813 595.687 78.1355C595.974 77.5616 596.296 77.2746 596.655 77.2746C597.014 77.2746 597.66 76.9159 598.592 76.1984C598.951 76.1984 599.238 76.0908 599.453 75.8756C599.74 75.6603 600.314 75.3733 601.175 75.0146C602.036 74.6559 602.574 74.4406 602.789 74.3689C603.076 74.2254 603.435 74.046 603.866 73.8308C604.296 73.5438 604.691 73.3286 605.049 73.1851C605.48 73.0416 605.875 72.8622 606.233 72.647C607.022 72.073 607.525 71.7143 607.74 71.5708C607.955 71.4273 608.529 71.3914 609.462 71.4632C610.466 71.4632 611.363 71.6425 612.152 72.0013C613.013 72.36 613.874 72.5394 614.735 72.5394C614.95 72.3959 615.524 72.4676 616.457 72.7546C617.461 72.9698 617.964 73.1492 617.964 73.2927C617.964 73.3644 618.179 73.5079 618.609 73.7232C619.901 74.2254 620.726 74.4765 621.085 74.4765C621.228 74.4048 621.623 74.8352 622.268 75.7679C622.914 76.7006 623.345 77.454 623.56 78.0279C623.632 78.0997 623.811 78.2432 624.098 78.4584C624.744 78.9606 625.354 79.6781 625.928 80.6108C626.501 81.5435 626.932 82.2251 627.219 82.6556C627.578 83.086 627.936 83.8035 628.295 84.8079C628.654 85.8124 628.905 86.4581 629.048 86.7451C629.264 86.9603 629.371 87.2473 629.371 87.606C629.443 87.893 629.551 88.2159 629.694 88.5746C629.838 88.8616 629.694 89.6867 629.264 91.0498C628.833 92.3413 627.936 94.0632 626.573 96.2156C625.21 98.2962 623.524 100.305 621.515 102.242L619.04 104.61L623.022 105.686C623.524 105.686 624.493 105.901 625.928 106.332C627.434 106.69 628.188 107.049 628.188 107.408C628.188 107.695 628.977 108.09 630.555 108.592C630.627 108.807 630.986 109.273 631.631 109.991C632.277 110.708 632.815 111.246 633.246 111.605C633.676 111.892 633.999 112.323 634.214 112.897C634.501 113.399 634.716 113.865 634.86 114.296C635.147 115.515 635.434 116.269 635.721 116.556C636.08 116.843 635.936 118.17 635.29 120.537C634.716 122.833 634.178 124.448 633.676 125.38C633.246 126.313 632.851 127.102 632.492 127.748C632.134 128.394 631.918 128.824 631.847 129.039C631.057 130.259 630.519 131.048 630.232 131.407C629.945 131.694 629.587 132.089 629.156 132.591C628.726 133.093 628.223 133.595 627.649 134.097C627.147 134.6 626.573 135.174 625.928 135.819C625.354 136.393 624.851 136.86 624.421 137.218C623.99 137.577 623.524 137.936 623.022 138.295C622.52 138.653 622.161 138.904 621.946 139.048C621.73 139.191 621.192 139.478 620.331 139.909C619.542 140.339 618.896 140.734 618.394 141.093C617.964 141.38 617.282 141.81 616.349 142.384C615.417 142.886 614.161 143.604 612.583 144.537L611.184 144.752C610.323 145.326 608.995 145.792 607.202 146.151L602.682 146.366C598.592 146.653 595.471 146.402 593.319 145.613C589.732 144.393 587.902 142.779 587.83 140.77C587.83 140.483 587.005 139.586 585.355 138.079L585.14 136.25C585.355 135.03 585.57 134.349 585.786 134.205C585.929 134.062 586.073 133.595 586.216 132.806L586.969 126.995C587.185 126.492 587.364 125.093 587.508 122.797C587.723 119.641 587.83 117.883 587.83 117.524C587.902 117.165 588.189 115.73 588.691 113.219C588.62 112.358 588.799 111.354 589.229 110.206ZM657.075 95.247C657.075 96.6819 656.573 100.628 655.568 107.085L655.245 108.592C655.532 108.448 656.106 107.946 656.967 107.085C658.33 105.865 660.483 104.395 663.424 102.673L665.039 101.489L668.375 100.09L672.034 97.8298C671.89 97.6863 672.07 97.3276 672.572 96.7536C674.007 94.3143 674.868 92.2695 675.155 90.6194C675.155 89.6149 675.011 88.8975 674.724 88.467C674.509 87.9648 673.648 87.6419 672.141 87.4984C671.926 87.2832 671.245 87.0679 670.097 86.8527C667.227 86.6375 664.823 86.8886 662.886 87.606H662.025L660.411 88.0365H658.581L658.043 90.9422C658.043 91.0857 657.864 91.8032 657.505 93.0946C657.505 93.6686 657.362 94.386 657.075 95.247ZM641.578 117.955C641.793 117.309 642.152 115.013 642.654 111.067L644.699 99.0136C644.842 98.7267 645.021 97.9733 645.237 96.7536C645.237 95.9644 645.308 95.1752 645.452 94.386C645.667 93.5251 645.775 92.0543 645.775 89.9736L644.483 89.1127L642.439 88.1441C641.578 87.7136 640.681 87.0321 639.748 86.0994C639.389 85.8841 639.282 85.346 639.425 84.4851C639.569 83.5524 640.107 82.8349 641.04 82.3327C641.255 82.3327 642.008 82.0816 643.3 81.5794C643.73 81.5794 644.447 81.2565 645.452 80.6108C645.667 80.6108 646.313 80.2879 647.389 79.6422L652.124 77.9203C652.483 77.9203 653.057 77.7409 653.846 77.3822C654.707 77.0235 655.568 76.8083 656.429 76.7365L660.626 76.4136C662.779 76.0549 664.644 76.1625 666.222 76.7365C667.299 76.7365 668.303 76.9517 669.236 77.3822C669.881 77.3822 670.85 77.6333 672.141 78.1355C673.074 78.279 674.043 78.6736 675.047 79.3194C675.549 79.3194 676.016 79.4629 676.446 79.7498C677.307 80.3956 678.204 80.9336 679.137 81.3641L681.72 83.6241C683.154 84.7721 684.482 86.3505 685.701 88.3594C687.065 89.7943 687.029 91.9467 685.594 94.8165C685.522 95.247 685.235 95.9286 684.733 96.8613C682.581 101.238 678.634 105.578 672.895 109.883L669.666 111.175L664.285 114.296C664.931 115.3 666.258 117.201 668.267 119.999L676.877 131.084L678.061 133.129L680.859 136.465C681.074 136.967 681.684 137.577 682.688 138.295L684.41 140.124C685.988 141.487 686.598 142.994 686.24 144.644C685.953 146.294 684.948 147.119 683.226 147.119L680.643 146.797L675.478 145.182L673.756 143.46C672.177 142.671 670.958 141.846 670.097 140.985C669.307 140.052 668.16 138.869 666.653 137.434C665.361 136.573 663.604 134.815 661.38 132.16C661.38 132.089 661.164 131.515 660.734 130.438C659.873 129.721 659.12 128.107 658.474 125.596C658.402 125.524 658.294 125.38 658.151 125.165C658.007 124.95 657.756 124.627 657.398 124.197C657.111 123.694 656.895 123.264 656.752 122.905C656.321 120.968 655.568 119.282 654.492 117.847H654.061C654.061 118.277 653.918 118.887 653.631 119.677V121.829L652.77 128.071L651.263 135.819C651.263 136.035 651.156 136.501 650.941 137.218C650.797 137.936 650.725 138.366 650.725 138.51C650.797 138.582 650.833 138.976 650.833 139.694C650.833 140.339 650.761 140.877 650.618 141.308C650.618 141.882 650.402 142.815 649.972 144.106C649.613 145.397 649.039 146.223 648.25 146.581C647.533 147.012 646.169 147.048 644.161 146.689C643.443 146.402 642.474 145.362 641.255 143.568C640.681 143.353 639.999 142.169 639.21 140.017C639.354 138.725 639.425 137.936 639.425 137.649C639.425 137.362 639.389 136.967 639.318 136.465C639.389 135.174 639.461 134.097 639.533 133.237V132.483C639.533 132.34 639.569 132.16 639.641 131.945C639.712 131.658 639.784 131.263 639.856 130.761C639.999 130.187 640.143 129.721 640.286 129.362C640.43 128.788 640.501 127.963 640.501 126.887C640.501 125.811 640.753 124.77 641.255 123.766C641.255 122.833 641.362 120.896 641.578 117.955ZM729.197 81.1489C729.412 82.0816 729.233 82.7273 728.659 83.086C728.157 83.4448 727.583 83.6241 726.937 83.6241C726.292 83.6241 724.677 83.6959 722.094 83.8394C720.516 84.1263 718.866 84.6286 717.144 85.346H717.036C717.036 86.494 716.678 88.5029 715.96 91.3727C715.96 92.2336 715.745 93.7044 715.314 95.7851C715.314 96.2873 715.207 96.8613 714.992 97.507C714.776 98.1527 714.669 99.1213 714.669 100.413C714.166 103.426 713.987 105.256 714.131 105.901C713.557 108.915 713.27 111.21 713.27 112.789C713.27 114.296 713.09 115.623 712.732 116.771V117.955C712.875 120.681 712.767 122.618 712.409 123.766C712.122 124.914 711.978 125.883 711.978 126.672C711.978 127.461 711.799 128.681 711.44 130.331C711.081 131.981 710.974 133.954 711.117 136.25H711.763C713.557 136.106 714.525 136.07 714.669 136.142C714.812 136.142 715.314 136.035 716.175 135.819L717.897 135.927H718.973C719.189 135.927 719.655 136.214 720.372 136.788C721.951 138.079 722.632 139.084 722.417 139.801C722.202 140.447 721.377 141.308 719.942 142.384L717.897 143.03C717.682 143.317 717.144 143.604 716.283 143.891C715.494 144.178 714.812 144.321 714.238 144.321C712.588 144.68 711.584 145.254 711.225 146.043C711.01 146.689 709.324 146.94 706.167 146.797H702.508L700.463 147.442C698.669 148.16 697.091 148.339 695.728 147.98C694.365 147.622 693.432 147.335 692.93 147.119C692.499 146.976 691.961 146.617 691.315 146.043C690.67 145.541 690.383 144.895 690.454 144.106C690.598 143.389 690.849 142.384 691.208 141.093C692.499 140.088 693.36 139.478 693.791 139.263C694.221 138.976 694.974 138.689 696.051 138.402C697.127 138.115 698.562 137.577 700.355 136.788C700.355 134.277 700.284 132.806 700.14 132.376C700.355 132.304 700.606 130.69 700.893 127.533C700.965 127.246 700.786 126.528 700.355 125.38V124.735C700.571 122.582 700.535 120.645 700.248 118.923C700.248 118.851 700.391 117.524 700.678 114.941C701.037 114.511 701.037 113.291 700.678 111.282C700.965 109.776 701.216 108.663 701.432 107.946L701.539 106.332C701.539 105.901 701.754 104.538 702.185 102.242L702.4 100.197C703.62 94.8883 704.481 90.7987 704.983 87.9289C704.409 88.0724 704.05 88.1441 703.907 88.1441L700.355 88.7898C697.629 89.579 695.225 88.9333 693.145 86.8527C691.351 84.1981 691.351 81.974 693.145 80.1803C694.149 79.1759 695.369 78.6019 696.804 78.4584C698.239 78.2432 699.889 77.6692 701.754 76.7365C702.328 76.7365 704.014 75.9114 706.812 74.2613C709.395 73.8308 710.938 73.6155 711.44 73.6155L716.606 72.9698C717.252 72.8981 718.112 72.9698 719.189 73.1851C720.265 73.3286 720.911 73.5438 721.126 73.8308C722.202 74.1178 723.35 74.5841 724.57 75.2298L727.152 77.7051C728.157 79.2835 728.838 80.4314 729.197 81.1489ZM770.941 112.681C771.371 111.82 771.658 110.242 771.802 107.946C771.945 105.65 772.089 104.072 772.232 103.211C772.232 94.8165 769.936 89.3279 765.345 86.7451C763.479 85.6689 761.686 85.3819 759.964 85.8841C759.174 85.8841 757.955 86.3863 756.305 87.3908C756.233 88.3952 756.197 90.0813 756.197 92.4489L755.659 96.4308L754.69 106.332C754.69 106.475 754.619 107.516 754.475 109.453C753.399 120.717 752.861 129.147 752.861 134.743C754.152 134.456 755.264 133.846 756.197 132.914C758.708 130.833 760.107 129.721 760.394 129.577L761.901 128.178C762.26 128.107 763.192 127.246 764.699 125.596V125.488L766.744 122.797L768.896 118.385C769.47 117.596 770.152 115.695 770.941 112.681ZM739.839 128.932C739.695 128.645 739.624 128.143 739.624 127.425C739.624 126.636 739.731 125.739 739.947 124.735C740.162 123.73 740.269 122.546 740.269 121.183C740.269 119.82 740.485 118.062 740.915 115.91C740.628 115.479 740.664 113.865 741.023 111.067C741.381 110.421 741.525 109.56 741.453 108.484C741.381 107.408 741.346 106.547 741.346 105.901C741.346 102.816 741.417 101.058 741.561 100.628C741.704 100.197 741.74 99.3365 741.668 98.0451C742.099 97.6146 742.458 95.9286 742.745 92.987C740.305 93.0587 738.476 92.413 737.256 91.0498C736.036 89.6149 735.032 87.606 734.243 85.0232C734.314 84.5927 734.386 84.1981 734.458 83.8394C734.601 83.4089 734.709 83.0502 734.781 82.7632C734.853 82.4762 734.996 82.1892 735.211 81.9022C735.427 81.5435 735.57 81.2924 735.642 81.1489C735.785 80.9336 736.036 80.6825 736.395 80.3956C736.754 80.0368 737.005 79.8216 737.148 79.7498C737.292 79.6063 737.615 79.3911 738.117 79.1041C738.619 78.7454 738.942 78.5302 739.086 78.4584C739.229 78.3149 739.588 78.0638 740.162 77.7051C740.807 77.2746 741.238 76.9876 741.453 76.8441C741.668 76.4854 742.242 76.2343 743.175 76.0908C744.108 75.8756 745.507 75.3733 747.372 74.5841C747.659 74.2971 749.345 73.8308 752.43 73.1851C755.515 72.4676 758.529 72.7187 761.47 73.9384C763.12 73.9384 764.304 74.0819 765.022 74.3689C765.739 75.0146 766.708 75.4809 767.927 75.7679L773.416 78.6736C774.205 79.4629 775.82 81.3283 778.259 84.2698C780.914 89.0051 782.6 93.8121 783.317 98.6908C783.389 100.054 783.425 102.457 783.425 105.901C782.779 112.43 781.595 117.165 779.873 120.107C779.73 120.968 779.335 122.044 778.689 123.336C778.689 123.479 778.187 124.376 777.183 126.026C776.25 127.604 775.174 129.183 773.954 130.761C772.734 132.268 771.945 133.272 771.587 133.775C768.645 136.501 766.995 138.008 766.636 138.295C764.986 139.514 764.053 140.16 763.838 140.232C758.385 142.958 755.48 144.429 755.121 144.644C754.834 144.859 753.973 145.11 752.538 145.397C750.457 145.613 749.166 145.505 748.664 145.075C747.516 144.572 746.475 143.819 745.543 142.815C745.256 142.743 744.682 142.169 743.821 141.093C742.673 140.232 742.027 139.73 741.884 139.586C740.951 138.223 740.269 135.64 739.839 131.837C739.767 131.55 739.767 130.582 739.839 128.932ZM790.547 108.269L791.623 104.287C791.623 104 791.802 103.605 792.161 103.103L792.914 99.8746C793.13 99.2289 793.488 98.5473 793.991 97.8298C794.493 95.9644 794.995 94.7448 795.497 94.1708C796 93.5968 796.502 92.8076 797.004 91.8032C797.004 91.5162 797.363 90.8346 798.08 89.7584C798.798 88.6822 799.443 87.9289 800.017 87.4984C800.448 86.8527 800.771 86.4222 800.986 86.207C801.345 85.92 801.954 85.1308 802.815 83.8394C802.959 83.6241 803.605 83.1219 804.753 82.3327C805.111 81.8305 805.362 81.5435 805.506 81.4717C805.721 81.4717 806.152 81.1489 806.797 80.5032C807.156 79.714 807.873 78.9965 808.95 78.3508C810.026 77.7051 810.743 77.3822 811.102 77.3822C811.461 77.3822 811.927 77.1311 812.501 76.6289C812.573 76.6289 812.716 76.593 812.932 76.5213C813.219 76.4495 813.541 76.3778 813.9 76.306C815.694 76.019 816.77 75.7679 817.129 75.5527C817.487 75.3375 817.918 75.3016 818.42 75.4451C820.357 75.4451 822.259 75.8756 824.124 76.7365C824.483 76.7365 824.949 76.88 825.523 77.167C825.882 77.167 826.599 77.8844 827.675 79.3194C828.752 80.7543 829.361 81.7946 829.505 82.4403C829.146 82.5838 828.608 82.5838 827.891 82.4403C825.164 81.0771 820.752 83.8035 814.653 90.6194C811.497 94.4219 808.914 98.8702 806.905 103.964C806.618 105.327 806.295 106.368 805.936 107.085L803.353 113.65C802.851 114.009 802.493 117.13 802.277 123.013L802.062 126.241C801.919 128.25 802.134 129.685 802.708 130.546C803.066 131.55 803.497 132.304 803.999 132.806C804.573 133.308 805.004 133.559 805.291 133.559C805.506 133.559 806.044 133.344 806.905 132.914C807.766 132.483 808.627 132.089 809.488 131.73C809.918 131.73 810.492 131.371 811.21 130.654C811.425 130.654 811.712 130.367 812.071 129.793C812.071 129.362 812.358 129.147 812.932 129.147C813.219 129.147 813.577 128.824 814.008 128.178L814.869 127.425C815.156 127.425 815.622 127.03 816.268 126.241C816.985 125.596 817.452 124.878 817.667 124.089C817.81 124.089 818.097 123.802 818.528 123.228C819.102 122.941 819.496 122.582 819.712 122.152C819.927 121.65 820.501 120.932 821.433 119.999C822.007 119.21 822.617 118.672 823.263 118.385C823.406 118.529 823.801 118.457 824.447 118.17C824.949 118.026 825.487 117.381 826.061 116.233C826.276 116.161 826.384 115.695 826.384 114.834C826.527 114.69 826.527 113.614 826.384 111.605C825.953 111.605 825.2 111.713 824.124 111.928C822.043 112.502 819.999 112.358 817.99 111.497C817.559 111.21 817.344 110.888 817.344 110.529C816.985 109.668 816.878 109.022 817.021 108.592C817.667 106.942 818.384 105.722 819.173 104.933C819.963 104.143 820.644 103.749 821.218 103.749C821.29 103.749 822.438 103.534 824.662 103.103C825.021 103.103 826.133 102.96 827.998 102.673C829.935 102.386 831.012 102.386 831.227 102.673C831.514 102.888 831.908 102.996 832.411 102.996C832.913 102.924 833.738 103.139 834.886 103.641C836.106 104.072 837.002 104.682 837.576 105.471C838.366 108.197 838.688 110.744 838.545 113.112C837.899 121.004 837.576 126.17 837.576 128.609C837.218 134.349 837.038 138.043 837.038 139.694C837.038 141.344 837.218 142.671 837.576 143.676C837.935 144.68 837.792 146.007 837.146 147.657C837.002 148.662 836.644 149.451 836.07 150.025C835.567 150.599 834.814 150.85 833.81 150.778C832.877 150.707 832.411 150.42 832.411 149.917C832.411 149.487 832.016 149.092 831.227 148.734C830.366 148.016 829.577 147.406 828.859 146.904C828.213 146.402 827.819 146.079 827.675 145.936C827.101 145.792 826.85 145.505 826.922 145.075C827.066 144.644 826.958 144.106 826.599 143.46C826.24 142.025 825.846 139.12 825.415 134.743C825.057 133.452 824.734 132.806 824.447 132.806C824.232 132.806 823.622 133.38 822.617 134.528C821.972 135.963 821.254 137.003 820.465 137.649C819.676 138.295 818.886 138.976 818.097 139.694C816.304 141.344 815.299 142.205 815.084 142.277C814.94 142.348 814.761 142.456 814.546 142.599C813.828 143.03 812.932 143.64 811.855 144.429C808.627 145.003 806.295 145.146 804.86 144.859C804.214 144.859 803.497 144.537 802.708 143.891C801.919 143.245 801.56 142.922 801.632 142.922V142.815C801.632 142.671 801.416 142.528 800.986 142.384C800.555 142.241 800.089 141.99 799.587 141.631C799.372 141.631 799.156 141.451 798.941 141.093C798.798 140.734 798.403 140.447 797.757 140.232C797.757 140.017 797.578 139.694 797.219 139.263C797.004 139.263 796.789 138.94 796.573 138.295C796.502 138.438 796.143 138.187 795.497 137.541C794.852 136.896 794.493 136.501 794.421 136.357C793.775 136.214 793.453 135.963 793.453 135.604C793.453 135.532 793.094 135.03 792.376 134.097L791.623 132.698C790.475 131.335 789.758 129.29 789.471 126.564C789.255 126.564 789.184 126.062 789.255 125.057C789.327 124.053 789.291 123.264 789.148 122.69C789.435 121.398 789.363 120.573 788.933 120.215C788.646 118.349 788.646 117.165 788.933 116.663V114.834C788.933 113.973 789.148 112.789 789.578 111.282C789.578 110.78 789.722 110.17 790.009 109.453C790.296 108.663 790.475 108.269 790.547 108.269ZM859.588 114.941L859.373 122.69C859.516 125.129 859.695 126.457 859.911 126.672L860.341 129.255C860.341 129.757 860.592 130.69 861.094 132.053C861.094 132.34 862.063 133.237 864 134.743C864.933 134.743 867.085 134.097 870.457 132.806L874.762 131.299C876.484 130.223 878.098 129.829 879.605 130.116C881.183 130.331 882.08 131.586 882.295 133.882C882.367 134.958 882.26 135.783 881.973 136.357C881.757 136.931 881.147 137.613 880.143 138.402C879.21 139.191 878.565 139.765 878.206 140.124C877.847 140.483 877.273 140.842 876.484 141.2C875.767 141.559 874.87 141.954 873.793 142.384C872.789 142.815 872.143 143.102 871.856 143.245C868.843 144.465 866.655 144.895 865.292 144.537C864.502 144.537 863.606 144.321 862.601 143.891C861.597 143.532 861.059 143.389 860.987 143.46C860.7 143.532 860.126 143.424 859.265 143.137C858.476 142.85 857.184 142.492 855.391 142.061C855.391 141.774 854.888 141.451 853.884 141.093L851.086 138.617C850.584 138.33 850.081 137.434 849.579 135.927C848.144 133.631 847.319 131.586 847.104 129.793C846.745 128.932 846.602 127.82 846.673 126.457C846.387 126.098 846.064 124.627 845.705 122.044C845.49 118.6 845.597 115.946 846.028 114.08C846.028 112.861 846.315 111.533 846.889 110.098C847.176 108.879 847.391 107.695 847.534 106.547C847.75 106.117 847.929 105.291 848.073 104.072C847.786 103.139 848.36 100.771 849.794 96.9689C849.794 96.5384 850.081 95.5698 850.655 94.0632C851.086 93.274 851.373 92.2336 851.516 90.9422L852.377 89.0051C852.377 88.9333 852.987 86.8168 854.207 82.6556C854.853 81.3641 855.175 80.5749 855.175 80.2879L858.081 74.6917L859.373 73.0775C860.09 72.5035 860.879 72.1089 861.74 71.8936C862.171 71.5349 863.319 71.6067 865.184 72.1089C866.332 72.5394 867.085 72.9698 867.444 73.4003C867.946 73.6873 868.556 73.8308 869.273 73.8308C869.991 73.759 871.139 73.7232 872.717 73.7232C875.157 73.2927 877.883 73.4003 880.896 74.046C881.901 74.2613 882.798 74.907 883.587 75.9832C884.448 76.9159 884.771 77.7768 884.555 78.566C884.34 79.3552 883.981 79.9651 883.479 80.3956C883.049 80.7543 882.547 81.0771 881.973 81.3641C880.825 81.9381 880 82.3327 879.497 82.5479C878.923 82.6914 877.596 83.3013 875.515 84.3775C873.435 85.3819 872.072 86.0276 871.426 86.3146C870.421 86.7451 869.417 87.1755 868.413 87.606C867.121 88.467 866.368 89.3279 866.153 90.1889C866.081 90.3324 866.009 90.5117 865.937 90.727C865.866 90.9422 865.758 91.2292 865.614 91.5879C865.543 91.9467 865.399 92.4489 865.184 93.0946C864.969 93.7403 864.682 94.6371 864.323 95.7851C862.601 101.238 861.74 104.323 861.74 105.04L863.893 104.825C867.121 103.892 868.987 103.641 869.489 104.072C869.776 104.072 870.17 104 870.673 103.857C873.829 103.067 876.197 102.744 877.775 102.888C878.062 102.744 878.421 102.924 878.852 103.426C879.354 103.928 879.605 104.395 879.605 104.825C879.892 105.758 879.964 106.619 879.82 107.408C879.748 108.125 879.174 108.771 878.098 109.345L876.699 110.206L869.704 113.112L867.121 113.865C864.753 114.941 862.852 115.551 861.417 115.695L859.588 114.941Z" fill="#545454"/>
</svg>
